<svg xmlns="http://www.w3.org/2000/svg" xmlns:xlink="http://www.w3.org/1999/xlink" width="120" zoomAndPan="magnify" viewBox="0 0 90 44.999999" height="60" preserveAspectRatio="xMidYMid meet" version="1.0"><defs><g/><clipPath id="81ed658d2a"><path d="M 23 2.054688 L 30 2.054688 L 30 40 L 23 40 Z M 23 2.054688 " clip-rule="nonzero"/></clipPath><clipPath id="f28abbc38c"><path d="M 1.351562 5 L 34 5 L 34 43 L 1.351562 43 Z M 1.351562 5 " clip-rule="nonzero"/></clipPath><clipPath id="ce3da47938"><path d="M 2 5 L 40.351562 5 L 40.351562 37 L 2 37 Z M 2 5 " clip-rule="nonzero"/></clipPath></defs><path fill="#ffffff" d="M 11.84375 25.300781 L 11.84375 39.710938 L 7.589844 37.257812 L 6.667969 36.726562 L 6.210938 36.457031 L 6.210938 25.300781 Z M 11.84375 25.300781 " fill-opacity="1" fill-rule="nonzero"/><path fill="#ffffff" d="M 14.820312 16.226562 L 20.460938 16.226562 L 20.460938 41.214844 L 14.820312 41.214844 Z M 14.820312 16.226562 " fill-opacity="1" fill-rule="nonzero"/><g clip-path="url(#81ed658d2a)"><path fill="#ffffff" d="M 29.074219 2.054688 L 29.074219 36.359375 L 26.253906 38.035156 L 23.429688 39.71875 L 23.429688 2.054688 Z M 29.074219 2.054688 " fill-opacity="1" fill-rule="nonzero"/></g><g clip-path="url(#f28abbc38c)"><path fill="#ffde59" d="M 33.515625 14.679688 L 33.414062 14.621094 L 32.664062 14.1875 C 32.386719 14.582031 32.074219 15 31.738281 15.441406 L 32.351562 15.800781 L 32.351562 21.523438 C 32.910156 20.925781 33.421875 20.339844 33.898438 19.78125 L 33.898438 15.359375 C 33.898438 15.074219 33.75 14.820312 33.515625 14.679688 Z M 32.972656 22.136719 C 32.769531 22.351562 32.566406 22.570312 32.351562 22.792969 L 32.351562 32.785156 L 29.882812 34.207031 L 29.074219 34.671875 L 23.429688 37.929688 L 22.621094 38.394531 L 20.460938 39.644531 L 17.757812 41.207031 L 17.648438 41.273438 L 17.542969 41.207031 L 14.828125 39.636719 L 11.851562 37.921875 L 9.628906 36.644531 L 8.71875 36.121094 L 7.835938 35.613281 L 6.210938 34.671875 L 5.367188 34.183594 L 4.453125 33.652344 L 3.558594 33.136719 L 2.929688 32.777344 L 2.929688 15.792969 L 17.640625 7.304688 L 22.621094 10.183594 L 22.621094 8.390625 L 18.027344 5.742188 C 17.789062 5.601562 17.496094 5.601562 17.257812 5.742188 L 1.769531 14.679688 C 1.53125 14.820312 1.386719 15.074219 1.386719 15.351562 L 1.386719 33.226562 C 1.386719 33.503906 1.53125 33.757812 1.769531 33.898438 L 2.367188 34.238281 L 3.289062 34.78125 L 5.605469 36.113281 L 5.769531 36.203125 L 6.210938 36.457031 L 6.667969 36.71875 L 7.589844 37.25 L 11.84375 39.710938 L 17.257812 42.835938 C 17.378906 42.898438 17.511719 42.941406 17.640625 42.941406 C 17.773438 42.941406 17.910156 42.90625 18.027344 42.835938 L 23.429688 39.71875 L 26.71875 37.820312 L 29.066406 36.464844 L 29.875 36 L 33.503906 33.90625 C 33.742188 33.765625 33.890625 33.511719 33.890625 33.234375 L 33.890625 21.117188 C 33.605469 21.449219 33.292969 21.792969 32.972656 22.136719 Z M 32.972656 22.136719 " fill-opacity="1" fill-rule="nonzero"/></g><g clip-path="url(#ce3da47938)"><path fill="#fff34d" d="M 40.269531 14.679688 L 38.257812 13.601562 C 37.921875 14.148438 36.582031 16.59375 33.898438 19.773438 C 33.421875 20.339844 32.910156 20.917969 32.351562 21.515625 C 31.386719 22.554688 30.300781 23.632812 29.074219 24.738281 C 27.445312 26.195312 25.574219 27.683594 23.429688 29.121094 C 22.492188 29.75 21.5 30.378906 20.453125 30.984375 C 18.722656 31.992188 16.847656 32.957031 14.8125 33.847656 C 13.855469 34.265625 12.867188 34.671875 11.835938 35.050781 C 10.828125 35.425781 9.78125 35.785156 8.703125 36.121094 C 8.03125 36.332031 7.355469 36.53125 6.660156 36.726562 L 6.203125 36.464844 L 5.761719 36.210938 L 5.597656 36.121094 L 3.28125 34.789062 L 2.367188 34.238281 C 2.464844 34.214844 2.570312 34.191406 2.667969 34.160156 C 3.273438 33.996094 3.863281 33.832031 4.453125 33.660156 C 5.046875 33.480469 5.636719 33.300781 6.210938 33.105469 C 8.214844 32.441406 10.085938 31.707031 11.851562 30.910156 C 12.882812 30.445312 13.871094 29.964844 14.828125 29.464844 C 16.890625 28.386719 18.761719 27.242188 20.472656 26.070312 C 21.527344 25.34375 22.515625 24.597656 23.449219 23.863281 C 25.6875 22.074219 27.550781 20.273438 29.089844 18.605469 C 30.128906 17.46875 31.011719 16.40625 31.753906 15.441406 C 32.089844 15 32.402344 14.582031 32.679688 14.1875 C 33.398438 13.183594 33.929688 12.339844 34.289062 11.753906 C 34.339844 11.679688 34.378906 11.605469 34.421875 11.53125 L 33.695312 11.140625 L 33.105469 10.828125 L 32.238281 10.363281 L 32.476562 10.214844 L 39.410156 5.914062 L 39.972656 5.5625 L 40.007812 6.542969 Z M 40.269531 14.679688 " fill-opacity="1" fill-rule="nonzero"/></g><g fill="#000000" fill-opacity="1"><g transform="translate(53.20122, 13.438462)"><g><path d="M 4.09375 0 L 3.046875 -1.515625 L 1.890625 -1.515625 L 1.890625 0 L 0.640625 0 L 0.640625 -5.40625 L 2.984375 -5.40625 C 3.460938 -5.40625 3.878906 -5.328125 4.234375 -5.171875 C 4.585938 -5.015625 4.859375 -4.785156 5.046875 -4.484375 C 5.242188 -4.191406 5.34375 -3.847656 5.34375 -3.453125 C 5.34375 -3.046875 5.242188 -2.695312 5.046875 -2.40625 C 4.847656 -2.113281 4.570312 -1.890625 4.21875 -1.734375 L 5.4375 0 Z M 4.0625 -3.453125 C 4.0625 -3.753906 3.960938 -3.984375 3.765625 -4.140625 C 3.578125 -4.304688 3.296875 -4.390625 2.921875 -4.390625 L 1.890625 -4.390625 L 1.890625 -2.5 L 2.921875 -2.5 C 3.296875 -2.5 3.578125 -2.582031 3.765625 -2.75 C 3.960938 -2.914062 4.0625 -3.148438 4.0625 -3.453125 Z M 4.0625 -3.453125 "/></g></g></g><g fill="#000000" fill-opacity="1"><g transform="translate(58.890189, 13.438462)"><g><path d="M 0.640625 -5.40625 L 1.890625 -5.40625 L 1.890625 0 L 0.640625 0 Z M 0.640625 -5.40625 "/></g></g></g><g fill="#000000" fill-opacity="1"><g transform="translate(61.428943, 13.438462)"><g><path d="M 2.421875 0.09375 C 1.992188 0.09375 1.578125 0.0351562 1.171875 -0.078125 C 0.773438 -0.191406 0.457031 -0.34375 0.21875 -0.53125 L 0.640625 -1.484375 C 0.867188 -1.304688 1.144531 -1.164062 1.46875 -1.0625 C 1.789062 -0.957031 2.109375 -0.90625 2.421875 -0.90625 C 2.785156 -0.90625 3.050781 -0.957031 3.21875 -1.0625 C 3.382812 -1.175781 3.46875 -1.320312 3.46875 -1.5 C 3.46875 -1.625 3.414062 -1.726562 3.3125 -1.8125 C 3.21875 -1.894531 3.09375 -1.960938 2.9375 -2.015625 C 2.78125 -2.066406 2.566406 -2.125 2.296875 -2.1875 C 1.878906 -2.28125 1.539062 -2.375 1.28125 -2.46875 C 1.019531 -2.570312 0.796875 -2.734375 0.609375 -2.953125 C 0.421875 -3.171875 0.328125 -3.460938 0.328125 -3.828125 C 0.328125 -4.140625 0.410156 -4.421875 0.578125 -4.671875 C 0.742188 -4.929688 1 -5.132812 1.34375 -5.28125 C 1.6875 -5.425781 2.109375 -5.5 2.609375 -5.5 C 2.953125 -5.5 3.285156 -5.457031 3.609375 -5.375 C 3.941406 -5.300781 4.234375 -5.1875 4.484375 -5.03125 L 4.09375 -4.078125 C 3.59375 -4.359375 3.09375 -4.5 2.59375 -4.5 C 2.25 -4.5 1.988281 -4.441406 1.8125 -4.328125 C 1.644531 -4.210938 1.5625 -4.0625 1.5625 -3.875 C 1.5625 -3.695312 1.660156 -3.5625 1.859375 -3.46875 C 2.054688 -3.375 2.351562 -3.285156 2.75 -3.203125 C 3.15625 -3.109375 3.488281 -3.007812 3.75 -2.90625 C 4.019531 -2.8125 4.25 -2.65625 4.4375 -2.4375 C 4.625 -2.226562 4.71875 -1.941406 4.71875 -1.578125 C 4.71875 -1.273438 4.628906 -0.992188 4.453125 -0.734375 C 4.285156 -0.484375 4.023438 -0.28125 3.671875 -0.125 C 3.328125 0.0195312 2.910156 0.09375 2.421875 0.09375 Z M 2.421875 0.09375 "/></g></g></g><g fill="#000000" fill-opacity="1"><g transform="translate(66.367122, 13.438462)"><g><path d="M 4.828125 -1 L 4.828125 0 L 0.640625 0 L 0.640625 -5.40625 L 4.734375 -5.40625 L 4.734375 -4.40625 L 1.890625 -4.40625 L 1.890625 -3.234375 L 4.40625 -3.234375 L 4.40625 -2.265625 L 1.890625 -2.265625 L 1.890625 -1 Z M 4.828125 -1 "/></g></g></g><g fill="#000000" fill-opacity="1"><g transform="translate(43.262008, 20.641793)"><g><path d="M 4.296875 -2.796875 L 5.4375 -2.796875 L 5.4375 -0.59375 C 5.144531 -0.375 4.804688 -0.203125 4.421875 -0.078125 C 4.035156 0.0351562 3.644531 0.09375 3.25 0.09375 C 2.6875 0.09375 2.179688 -0.0234375 1.734375 -0.265625 C 1.285156 -0.503906 0.929688 -0.835938 0.671875 -1.265625 C 0.421875 -1.691406 0.296875 -2.171875 0.296875 -2.703125 C 0.296875 -3.242188 0.421875 -3.722656 0.671875 -4.140625 C 0.929688 -4.566406 1.285156 -4.898438 1.734375 -5.140625 C 2.191406 -5.378906 2.707031 -5.5 3.28125 -5.5 C 3.75 -5.5 4.175781 -5.421875 4.5625 -5.265625 C 4.957031 -5.109375 5.285156 -4.878906 5.546875 -4.578125 L 4.734375 -3.828125 C 4.347656 -4.234375 3.882812 -4.4375 3.34375 -4.4375 C 3 -4.4375 2.691406 -4.363281 2.421875 -4.21875 C 2.148438 -4.070312 1.9375 -3.867188 1.78125 -3.609375 C 1.632812 -3.347656 1.5625 -3.046875 1.5625 -2.703125 C 1.5625 -2.367188 1.632812 -2.070312 1.78125 -1.8125 C 1.9375 -1.550781 2.144531 -1.34375 2.40625 -1.1875 C 2.675781 -1.039062 2.984375 -0.96875 3.328125 -0.96875 C 3.679688 -0.96875 4.003906 -1.046875 4.296875 -1.203125 Z M 4.296875 -2.796875 "/></g></g></g><g fill="#000000" fill-opacity="1"><g transform="translate(49.229618, 20.641793)"><g><path d="M 4.09375 0 L 3.046875 -1.515625 L 1.890625 -1.515625 L 1.890625 0 L 0.640625 0 L 0.640625 -5.40625 L 2.984375 -5.40625 C 3.460938 -5.40625 3.878906 -5.328125 4.234375 -5.171875 C 4.585938 -5.015625 4.859375 -4.785156 5.046875 -4.484375 C 5.242188 -4.191406 5.34375 -3.847656 5.34375 -3.453125 C 5.34375 -3.046875 5.242188 -2.695312 5.046875 -2.40625 C 4.847656 -2.113281 4.570312 -1.890625 4.21875 -1.734375 L 5.4375 0 Z M 4.0625 -3.453125 C 4.0625 -3.753906 3.960938 -3.984375 3.765625 -4.140625 C 3.578125 -4.304688 3.296875 -4.390625 2.921875 -4.390625 L 1.890625 -4.390625 L 1.890625 -2.5 L 2.921875 -2.5 C 3.296875 -2.5 3.578125 -2.582031 3.765625 -2.75 C 3.960938 -2.914062 4.0625 -3.148438 4.0625 -3.453125 Z M 4.0625 -3.453125 "/></g></g></g><g fill="#000000" fill-opacity="1"><g transform="translate(54.918586, 20.641793)"><g><path d="M 3.265625 0.09375 C 2.703125 0.09375 2.191406 -0.0234375 1.734375 -0.265625 C 1.285156 -0.515625 0.929688 -0.847656 0.671875 -1.265625 C 0.421875 -1.691406 0.296875 -2.171875 0.296875 -2.703125 C 0.296875 -3.234375 0.421875 -3.710938 0.671875 -4.140625 C 0.929688 -4.566406 1.285156 -4.898438 1.734375 -5.140625 C 2.191406 -5.378906 2.703125 -5.5 3.265625 -5.5 C 3.828125 -5.5 4.332031 -5.378906 4.78125 -5.140625 C 5.226562 -4.898438 5.578125 -4.566406 5.828125 -4.140625 C 6.085938 -3.710938 6.21875 -3.234375 6.21875 -2.703125 C 6.21875 -2.171875 6.085938 -1.691406 5.828125 -1.265625 C 5.578125 -0.847656 5.226562 -0.515625 4.78125 -0.265625 C 4.332031 -0.0234375 3.828125 0.09375 3.265625 0.09375 Z M 3.265625 -0.96875 C 3.585938 -0.96875 3.875 -1.039062 4.125 -1.1875 C 4.382812 -1.34375 4.585938 -1.550781 4.734375 -1.8125 C 4.878906 -2.070312 4.953125 -2.367188 4.953125 -2.703125 C 4.953125 -3.035156 4.878906 -3.332031 4.734375 -3.59375 C 4.585938 -3.863281 4.382812 -4.070312 4.125 -4.21875 C 3.875 -4.363281 3.585938 -4.4375 3.265625 -4.4375 C 2.941406 -4.4375 2.648438 -4.363281 2.390625 -4.21875 C 2.140625 -4.070312 1.9375 -3.863281 1.78125 -3.59375 C 1.632812 -3.332031 1.5625 -3.035156 1.5625 -2.703125 C 1.5625 -2.367188 1.632812 -2.070312 1.78125 -1.8125 C 1.9375 -1.550781 2.140625 -1.34375 2.390625 -1.1875 C 2.648438 -1.039062 2.941406 -0.96875 3.265625 -0.96875 Z M 3.265625 -0.96875 "/></g></g></g><g fill="#000000" fill-opacity="1"><g transform="translate(61.451222, 20.641793)"><g><path d="M 8.828125 -5.40625 L 7.046875 0 L 5.703125 0 L 4.515625 -3.671875 L 3.28125 0 L 1.953125 0 L 0.171875 -5.40625 L 1.46875 -5.40625 L 2.6875 -1.609375 L 3.96875 -5.40625 L 5.125 -5.40625 L 6.359375 -1.578125 L 7.625 -5.40625 Z M 8.828125 -5.40625 "/></g></g></g><g fill="#000000" fill-opacity="1"><g transform="translate(70.452951, 20.641793)"><g><path d="M 1.765625 -4.390625 L 0.03125 -4.390625 L 0.03125 -5.40625 L 4.75 -5.40625 L 4.75 -4.390625 L 3.015625 -4.390625 L 3.015625 0 L 1.765625 0 Z M 1.765625 -4.390625 "/></g></g></g><g fill="#000000" fill-opacity="1"><g transform="translate(75.236328, 20.641793)"><g><path d="M 5.609375 -5.40625 L 5.609375 0 L 4.359375 0 L 4.359375 -2.21875 L 1.890625 -2.21875 L 1.890625 0 L 0.640625 0 L 0.640625 -5.40625 L 1.890625 -5.40625 L 1.890625 -3.28125 L 4.359375 -3.28125 L 4.359375 -5.40625 Z M 5.609375 -5.40625 "/></g></g></g><g fill="#000000" fill-opacity="1"><g transform="translate(37.643064, 27.845124)"><g><path d="M 5.5625 0 L 5.5625 -3.25 L 3.96875 -0.578125 L 3.40625 -0.578125 L 1.8125 -3.171875 L 1.8125 0 L 0.640625 0 L 0.640625 -5.40625 L 1.671875 -5.40625 L 3.703125 -2.046875 L 5.703125 -5.40625 L 6.734375 -5.40625 L 6.75 0 Z M 5.5625 0 "/></g></g></g><g fill="#000000" fill-opacity="1"><g transform="translate(45.034855, 27.845124)"><g><path d="M 4.203125 -1.15625 L 1.6875 -1.15625 L 1.21875 0 L -0.0625 0 L 2.34375 -5.40625 L 3.578125 -5.40625 L 6 0 L 4.6875 0 Z M 3.8125 -2.109375 L 2.953125 -4.1875 L 2.09375 -2.109375 Z M 3.8125 -2.109375 "/></g></g></g><g fill="#000000" fill-opacity="1"><g transform="translate(50.963766, 27.845124)"><g><path d="M 4.09375 0 L 3.046875 -1.515625 L 1.890625 -1.515625 L 1.890625 0 L 0.640625 0 L 0.640625 -5.40625 L 2.984375 -5.40625 C 3.460938 -5.40625 3.878906 -5.328125 4.234375 -5.171875 C 4.585938 -5.015625 4.859375 -4.785156 5.046875 -4.484375 C 5.242188 -4.191406 5.34375 -3.847656 5.34375 -3.453125 C 5.34375 -3.046875 5.242188 -2.695312 5.046875 -2.40625 C 4.847656 -2.113281 4.570312 -1.890625 4.21875 -1.734375 L 5.4375 0 Z M 4.0625 -3.453125 C 4.0625 -3.753906 3.960938 -3.984375 3.765625 -4.140625 C 3.578125 -4.304688 3.296875 -4.390625 2.921875 -4.390625 L 1.890625 -4.390625 L 1.890625 -2.5 L 2.921875 -2.5 C 3.296875 -2.5 3.578125 -2.582031 3.765625 -2.75 C 3.960938 -2.914062 4.0625 -3.148438 4.0625 -3.453125 Z M 4.0625 -3.453125 "/></g></g></g><g fill="#000000" fill-opacity="1"><g transform="translate(56.652735, 27.845124)"><g><path d="M 2.609375 -2.125 L 1.890625 -1.375 L 1.890625 0 L 0.640625 0 L 0.640625 -5.40625 L 1.890625 -5.40625 L 1.890625 -2.890625 L 4.28125 -5.40625 L 5.671875 -5.40625 L 3.4375 -3 L 5.8125 0 L 4.34375 0 Z M 2.609375 -2.125 "/></g></g></g><g fill="#000000" fill-opacity="1"><g transform="translate(62.380402, 27.845124)"><g><path d="M 4.828125 -1 L 4.828125 0 L 0.640625 0 L 0.640625 -5.40625 L 4.734375 -5.40625 L 4.734375 -4.40625 L 1.890625 -4.40625 L 1.890625 -3.234375 L 4.40625 -3.234375 L 4.40625 -2.265625 L 1.890625 -2.265625 L 1.890625 -1 Z M 4.828125 -1 "/></g></g></g><g fill="#000000" fill-opacity="1"><g transform="translate(67.574004, 27.845124)"><g><path d="M 1.765625 -4.390625 L 0.03125 -4.390625 L 0.03125 -5.40625 L 4.75 -5.40625 L 4.75 -4.390625 L 3.015625 -4.390625 L 3.015625 0 L 1.765625 0 Z M 1.765625 -4.390625 "/></g></g></g><g fill="#000000" fill-opacity="1"><g transform="translate(72.357382, 27.845124)"><g><path d="M 0.640625 -5.40625 L 1.890625 -5.40625 L 1.890625 0 L 0.640625 0 Z M 0.640625 -5.40625 "/></g></g></g><g fill="#000000" fill-opacity="1"><g transform="translate(74.896136, 27.845124)"><g><path d="M 5.609375 -5.40625 L 5.609375 0 L 4.578125 0 L 1.875 -3.28125 L 1.875 0 L 0.640625 0 L 0.640625 -5.40625 L 1.671875 -5.40625 L 4.375 -2.125 L 4.375 -5.40625 Z M 5.609375 -5.40625 "/></g></g></g><g fill="#000000" fill-opacity="1"><g transform="translate(81.15013, 27.845124)"><g><path d="M 4.296875 -2.796875 L 5.4375 -2.796875 L 5.4375 -0.59375 C 5.144531 -0.375 4.804688 -0.203125 4.421875 -0.078125 C 4.035156 0.0351562 3.644531 0.09375 3.25 0.09375 C 2.6875 0.09375 2.179688 -0.0234375 1.734375 -0.265625 C 1.285156 -0.503906 0.929688 -0.835938 0.671875 -1.265625 C 0.421875 -1.691406 0.296875 -2.171875 0.296875 -2.703125 C 0.296875 -3.242188 0.421875 -3.722656 0.671875 -4.140625 C 0.929688 -4.566406 1.285156 -4.898438 1.734375 -5.140625 C 2.191406 -5.378906 2.707031 -5.5 3.28125 -5.5 C 3.75 -5.5 4.175781 -5.421875 4.5625 -5.265625 C 4.957031 -5.109375 5.285156 -4.878906 5.546875 -4.578125 L 4.734375 -3.828125 C 4.347656 -4.234375 3.882812 -4.4375 3.34375 -4.4375 C 3 -4.4375 2.691406 -4.363281 2.421875 -4.21875 C 2.148438 -4.070312 1.9375 -3.867188 1.78125 -3.609375 C 1.632812 -3.347656 1.5625 -3.046875 1.5625 -2.703125 C 1.5625 -2.367188 1.632812 -2.070312 1.78125 -1.8125 C 1.9375 -1.550781 2.144531 -1.34375 2.40625 -1.1875 C 2.675781 -1.039062 2.984375 -0.96875 3.328125 -0.96875 C 3.679688 -0.96875 4.003906 -1.046875 4.296875 -1.203125 Z M 4.296875 -2.796875 "/></g></g></g><g fill="#000000" fill-opacity="1"><g transform="translate(37.019698, 35.048456)"><g><path d="M 3.234375 0.09375 C 2.679688 0.09375 2.179688 -0.0234375 1.734375 -0.265625 C 1.285156 -0.503906 0.929688 -0.835938 0.671875 -1.265625 C 0.421875 -1.691406 0.296875 -2.171875 0.296875 -2.703125 C 0.296875 -3.242188 0.421875 -3.722656 0.671875 -4.140625 C 0.929688 -4.566406 1.285156 -4.898438 1.734375 -5.140625 C 2.179688 -5.378906 2.679688 -5.5 3.234375 -5.5 C 3.703125 -5.5 4.125 -5.414062 4.5 -5.25 C 4.882812 -5.09375 5.207031 -4.859375 5.46875 -4.546875 L 4.65625 -3.8125 C 4.289062 -4.226562 3.835938 -4.4375 3.296875 -4.4375 C 2.960938 -4.4375 2.664062 -4.363281 2.40625 -4.21875 C 2.144531 -4.070312 1.9375 -3.863281 1.78125 -3.59375 C 1.632812 -3.332031 1.5625 -3.035156 1.5625 -2.703125 C 1.5625 -2.367188 1.632812 -2.070312 1.78125 -1.8125 C 1.9375 -1.550781 2.144531 -1.34375 2.40625 -1.1875 C 2.664062 -1.039062 2.960938 -0.96875 3.296875 -0.96875 C 3.835938 -0.96875 4.289062 -1.179688 4.65625 -1.609375 L 5.46875 -0.875 C 5.207031 -0.5625 4.882812 -0.320312 4.5 -0.15625 C 4.125 0.0078125 3.703125 0.09375 3.234375 0.09375 Z M 3.234375 0.09375 "/></g></g></g><g fill="#000000" fill-opacity="1"><g transform="translate(42.693186, 35.048456)"><g><path d="M 3.265625 0.09375 C 2.703125 0.09375 2.191406 -0.0234375 1.734375 -0.265625 C 1.285156 -0.515625 0.929688 -0.847656 0.671875 -1.265625 C 0.421875 -1.691406 0.296875 -2.171875 0.296875 -2.703125 C 0.296875 -3.234375 0.421875 -3.710938 0.671875 -4.140625 C 0.929688 -4.566406 1.285156 -4.898438 1.734375 -5.140625 C 2.191406 -5.378906 2.703125 -5.5 3.265625 -5.5 C 3.828125 -5.5 4.332031 -5.378906 4.78125 -5.140625 C 5.226562 -4.898438 5.578125 -4.566406 5.828125 -4.140625 C 6.085938 -3.710938 6.21875 -3.234375 6.21875 -2.703125 C 6.21875 -2.171875 6.085938 -1.691406 5.828125 -1.265625 C 5.578125 -0.847656 5.226562 -0.515625 4.78125 -0.265625 C 4.332031 -0.0234375 3.828125 0.09375 3.265625 0.09375 Z M 3.265625 -0.96875 C 3.585938 -0.96875 3.875 -1.039062 4.125 -1.1875 C 4.382812 -1.34375 4.585938 -1.550781 4.734375 -1.8125 C 4.878906 -2.070312 4.953125 -2.367188 4.953125 -2.703125 C 4.953125 -3.035156 4.878906 -3.332031 4.734375 -3.59375 C 4.585938 -3.863281 4.382812 -4.070312 4.125 -4.21875 C 3.875 -4.363281 3.585938 -4.4375 3.265625 -4.4375 C 2.941406 -4.4375 2.648438 -4.363281 2.390625 -4.21875 C 2.140625 -4.070312 1.9375 -3.863281 1.78125 -3.59375 C 1.632812 -3.332031 1.5625 -3.035156 1.5625 -2.703125 C 1.5625 -2.367188 1.632812 -2.070312 1.78125 -1.8125 C 1.9375 -1.550781 2.140625 -1.34375 2.390625 -1.1875 C 2.648438 -1.039062 2.941406 -0.96875 3.265625 -0.96875 Z M 3.265625 -0.96875 "/></g></g></g><g fill="#000000" fill-opacity="1"><g transform="translate(49.225821, 35.048456)"><g><path d="M 0.640625 -5.40625 L 1.890625 -5.40625 L 1.890625 -1.015625 L 4.609375 -1.015625 L 4.609375 0 L 0.640625 0 Z M 0.640625 -5.40625 "/></g></g></g><g fill="#000000" fill-opacity="1"><g transform="translate(53.900841, 35.048456)"><g><path d="M 0.640625 -5.40625 L 1.890625 -5.40625 L 1.890625 -1.015625 L 4.609375 -1.015625 L 4.609375 0 L 0.640625 0 Z M 0.640625 -5.40625 "/></g></g></g><g fill="#000000" fill-opacity="1"><g transform="translate(58.57586, 35.048456)"><g><path d="M 4.828125 -1 L 4.828125 0 L 0.640625 0 L 0.640625 -5.40625 L 4.734375 -5.40625 L 4.734375 -4.40625 L 1.890625 -4.40625 L 1.890625 -3.234375 L 4.40625 -3.234375 L 4.40625 -2.265625 L 1.890625 -2.265625 L 1.890625 -1 Z M 4.828125 -1 "/></g></g></g><g fill="#000000" fill-opacity="1"><g transform="translate(63.769462, 35.048456)"><g><path d="M 3.234375 0.09375 C 2.679688 0.09375 2.179688 -0.0234375 1.734375 -0.265625 C 1.285156 -0.503906 0.929688 -0.835938 0.671875 -1.265625 C 0.421875 -1.691406 0.296875 -2.171875 0.296875 -2.703125 C 0.296875 -3.242188 0.421875 -3.722656 0.671875 -4.140625 C 0.929688 -4.566406 1.285156 -4.898438 1.734375 -5.140625 C 2.179688 -5.378906 2.679688 -5.5 3.234375 -5.5 C 3.703125 -5.5 4.125 -5.414062 4.5 -5.25 C 4.882812 -5.09375 5.207031 -4.859375 5.46875 -4.546875 L 4.65625 -3.8125 C 4.289062 -4.226562 3.835938 -4.4375 3.296875 -4.4375 C 2.960938 -4.4375 2.664062 -4.363281 2.40625 -4.21875 C 2.144531 -4.070312 1.9375 -3.863281 1.78125 -3.59375 C 1.632812 -3.332031 1.5625 -3.035156 1.5625 -2.703125 C 1.5625 -2.367188 1.632812 -2.070312 1.78125 -1.8125 C 1.9375 -1.550781 2.144531 -1.34375 2.40625 -1.1875 C 2.664062 -1.039062 2.960938 -0.96875 3.296875 -0.96875 C 3.835938 -0.96875 4.289062 -1.179688 4.65625 -1.609375 L 5.46875 -0.875 C 5.207031 -0.5625 4.882812 -0.320312 4.5 -0.15625 C 4.125 0.0078125 3.703125 0.09375 3.234375 0.09375 Z M 3.234375 0.09375 "/></g></g></g><g fill="#000000" fill-opacity="1"><g transform="translate(69.44295, 35.048456)"><g><path d="M 1.765625 -4.390625 L 0.03125 -4.390625 L 0.03125 -5.40625 L 4.75 -5.40625 L 4.75 -4.390625 L 3.015625 -4.390625 L 3.015625 0 L 1.765625 0 Z M 1.765625 -4.390625 "/></g></g></g><g fill="#000000" fill-opacity="1"><g transform="translate(74.226328, 35.048456)"><g><path d="M 0.640625 -5.40625 L 1.890625 -5.40625 L 1.890625 0 L 0.640625 0 Z M 0.640625 -5.40625 "/></g></g></g><g fill="#000000" fill-opacity="1"><g transform="translate(76.765082, 35.048456)"><g><path d="M 5.84375 -5.40625 L 3.5 0 L 2.265625 0 L -0.0625 -5.40625 L 1.28125 -5.40625 L 2.9375 -1.546875 L 4.609375 -5.40625 Z M 5.84375 -5.40625 "/></g></g></g><g fill="#000000" fill-opacity="1"><g transform="translate(82.539191, 35.048456)"><g><path d="M 4.828125 -1 L 4.828125 0 L 0.640625 0 L 0.640625 -5.40625 L 4.734375 -5.40625 L 4.734375 -4.40625 L 1.890625 -4.40625 L 1.890625 -3.234375 L 4.40625 -3.234375 L 4.40625 -2.265625 L 1.890625 -2.265625 L 1.890625 -1 Z M 4.828125 -1 "/></g></g></g></svg>